# xmcd
#
# Track frame offsets: 
#        150
#        10935
#        26382
#        46467
#        61191
#        80472
#        94741
#        107220
#        123262
#        133681
#        147356
#        158670
#        176304
#        190287
#        191505
#        204024
#        221248
#        241409
#        257176
#
# Disc length: 3493 seconds
#
# Revision: 0
# Processed by: cddbd v1.5.2PL0 Copyright (c) Steve Scherf et al.
# Submitted via: ExactAudioCopy v0.99pb3
#
DISCID=040da313
DTITLE=Jon Langford - Skull Orchard Revisited
DYEAR=2011
DGENRE=Alt. Rock
TTITLE0=Tubby Brothers
TTITLE1=Verdun
TTITLE2=Last Count
TTITLE3=Butter Song
TTITLE4=Sentimental Marching Song
TTITLE5=Youghal
TTITLE6=Trap Door
TTITLE7=Inside The Whale
TTITLE8=I Am The Law
TTITLE9=Green Vallleys
TTITLE10=Pill Sailor
TTITLE11=Penny Arcades
TTITLE12=My Own Worst Enemy
TTITLE13="the miners in the ground"
TTITLE14=I'm Stopping This Train
TTITLE15=Deep Sea Diver
TTITLE16=Tom Jones Levitation
TTITLE17=The Ballad Of Solomon Jones
TTITLE18=Message From Newport
EXTD=
EXTT0=
EXTT1=
EXTT2=
EXTT3=
EXTT4=
EXTT5=
EXTT6=
EXTT7=
EXTT8=
EXTT9=
EXTT10=
EXTT11=
EXTT12=
EXTT13=
EXTT14=
EXTT15=
EXTT16=
EXTT17=
EXTT18=
PLAYORDER=
